<svg xmlns="http://www.w3.org/2000/svg"  viewBox="0 0 80 80" width="480px" height="480px" baseProfile="basic"><polygon fill="#788b9c" points="41.239,25.411 30.171,6.5 18.75,25.411"/><polygon fill="#c5d4de" points="63.375,25.359 52.307,6.5 41.239,25.359"/><polygon fill="#788b9c" points="30.171,6.5 41.239,25.411 52.307,6.5"/><path fill="#36404d" d="M41.671,25.664h-0.863L29.74,6.753L30.171,6h22.136l0.432,0.753L41.671,25.664z M31.043,7 l10.196,17.421L51.435,7H31.043z"/><polygon fill="#788b9c" points="18.75,25.411 30.125,44.125 41.239,25.411"/><path fill="#36404d" d="M30.132,44.959L18.06,25.503L29.89,6h22.705l11.65,20H41.522L30.132,44.959z M19.233,25.497	l10.885,17.544L40.957,25h21.548L52.02,7H30.453L19.233,25.497z"/><rect width="22.137" height=".999" x="35.524" y="15.774" fill="#36404d" transform="rotate(-59.853 46.594 16.275)"/><rect width="1.001" height="21.912" x="35.205" y="5" fill="#36404d" transform="rotate(-30.337 35.706 15.955)"/><rect width="22.276" height="1" x="18.724" y="25" fill="#36404d"/><polygon fill="#788b9c" points="41.011,55.464 52.079,74.375 63.146,55.464"/><polygon fill="#c5d4de" points="18.875,55.516 29.943,74.375 41.011,55.516"/><polygon fill="#788b9c" points="52.079,74.5 41.011,55.464 29.943,74.5"/><path fill="#36404d" d="M52.079,75.002H29.943l-0.434-0.754l11.068-19.036h0.867l11.068,19.036L52.079,75.002z M30.815,73.998h20.392L41.011,56.462L30.815,73.998z"/><polygon fill="#788b9c" points="63.146,55.464 52.125,36.75 41.011,55.464"/><path fill="#36404d" d="M52.365,75H29.655l-11.65-20h22.723l11.397-18.971l11.707,19.468L52.365,75z M30.23,74h21.562	l10.876-18.497L52.125,37.971L41.293,56H19.745L30.23,74z"/><rect width="22.137" height=".999" x="24.589" y="64.101" fill="#36404d" transform="rotate(-59.853 35.659 64.604)"/><rect width="1.001" height="21.912" x="46.044" y="53.964" fill="#36404d" transform="rotate(-30.337 46.547 64.92)"/><rect width="21.923" height="1" x="41.25" y="55" fill="#36404d"/></svg>